# xmcd CD database file
#
# Track frame offsets:
#	150
#	18492
#	35697
#	54090
#
# Disc length: 948 seconds
#
# Revision: 0
# Processed by: cddbd v1.5.1PL0 Copyright (c) Steve Scherf et al.
# Submitted via: CDex 1.51
#
DISCID=2803b204
DTITLE=鶴田　加奈子 - Future Dream (EP)
DYEAR=1997
DGENRE=Pop
TTITLE0=Future Dream
TTITLE1=ラブ・キャンドルストーリィー
TTITLE2=Future Dream (Original Karaoke)
TTITLE3=ラブ・キャンドルストーリィー (Original Karaoke)
EXTD=YEAR: 1997
EXTT0=
EXTT1=
EXTT2=
EXTT3=
PLAYORDER=
